  0
SECTION
  2
HEADER
  9
$EXTMAX
 10
100.0
 20
100.0
 30
0.0
  9
$ANGBASE
 50
0.0
  9
$ACADVER
  1
AC1009
  9
$EXTMIN
 10
0.0
 20
0.0
 30
0.0
  9
$AUNITS
 70
0
  9
$UNITMODE
 70
0
  9
$INSBASE
 10
0.0
 20
0.0
 30
0.0
  9
$INSUNITS
 70
4
  9
$MEASUREMENT
 70
1
  9
$ANGDIR
 70
0
  0
ENDSEC
  0
SECTION
  2
TABLES
  0
TABLE
  2
LTYPE
 70
19
  0
LTYPE
  2
CONTINUOUS
 70
0
  3
Solid
 72
65
 73
0
 40
0.0
  0
LTYPE
  2
DOTX2
 70
0
  3
Dot (2x) .    .    .    .    .    .    .    . 
 72
65
 73
2
 40
0.4
 49
0.0
 49
-0.4
  0
LTYPE
  2
CENTER
 70
0
  3
Center ____ _ ____ _ ____ _ ____ _ ____ _ ____
 72
65
 73
4
 40
2.0
 49
1.25
 49
-0.25
 49
0.25
 49
-0.25
  0
LTYPE
  2
DASHED2
 70
0
  3
Dashed (.5x) _ _ _ _ _ _ _ _ _ _ _ _ _ _
 72
65
 73
2
 40
0.3
 49
0.25
 49
-0.05
  0
LTYPE
  2
DOT
 70
0
  3
Dot .  .  .  .  .  .  .  .  .  .  .  .  .  .  .  .
 72
65
 73
2
 40
0.2
 49
0.0
 49
-0.2
  0
LTYPE
  2
DOT2
 70
0
  3
Dot (.5) . . . . . . . . . . . . . . . . . . . 
 72
65
 73
2
 40
0.1
 49
0.0
 49
-0.1
  0
LTYPE
  2
PHANTOM
 70
0
  3
Phantom ______  __  __  ______  __  __  ______
 72
65
 73
6
 40
2.5
 49
1.25
 49
-0.25
 49
0.25
 49
-0.25
 49
0.25
 49
-0.25
  0
LTYPE
  2
DASHED
 70
0
  3
Dashed __ __ __ __ __ __ __ __ __ __ __ __ __ _
 72
65
 73
2
 40
0.6
 49
0.5
 49
-0.1
  0
LTYPE
  2
CENTERX2
 70
0
  3
Center (2x) ________  __  ________  __  ________
 72
65
 73
4
 40
3.5
 49
2.5
 49
-0.25
 49
0.5
 49
-0.25
  0
LTYPE
  2
PHANTOMX2
 70
0
  3
Phantom (2x)____________    ____    ____    ____________
 72
65
 73
6
 40
4.25
 49
2.5
 49
-0.25
 49
0.5
 49
-0.25
 49
0.5
 49
-0.25
  0
LTYPE
  2
DIVIDE
 70
0
  3
Divide __ . . __ . . __ . . __ . . __ . . __
 72
65
 73
6
 40
1.6
 49
1.0
 49
-0.2
 49
0.0
 49
-0.2
 49
0.0
 49
-0.2
  0
LTYPE
  2
DASHDOT
 70
0
  3
Dash dot __ . __ . __ . __ . __ . __ . __ . __
 72
65
 73
4
 40
1.4
 49
1.0
 49
-0.2
 49
0.0
 49
-0.2
  0
LTYPE
  2
CENTER2
 70
0
  3
Center (.5x) ____ _ ____ _ ____ _ ____ _ ____
 72
65
 73
4
 40
1.0
 49
0.625
 49
-0.125
 49
0.125
 49
-0.125
  0
LTYPE
  2
DIVIDEX2
 70
0
  3
Divide (2x) ____  . .  ____  . .  ____  . .  ____
 72
65
 73
6
 40
2.6
 49
2.0
 49
-0.2
 49
0.0
 49
-0.2
 49
0.0
 49
-0.2
  0
LTYPE
  2
DASHEDX2
 70
0
  3
Dashed (2x) ____  ____  ____  ____  ____  ____
 72
65
 73
2
 40
1.2
 49
1.0
 49
-0.2
  0
LTYPE
  2
DIVIDE2
 70
0
  3
Divide(.5x) _ . _ . _ . _ . _ . _ . _ . _
 72
65
 73
6
 40
0.8
 49
0.5
 49
-0.1
 49
0.0
 49
-0.1
 49
0.0
 49
-0.1
  0
LTYPE
  2
DASHDOTX2
 70
0
  3
Dash dot (2x) ____  .  ____  .  ____  .  ____
 72
65
 73
4
 40
2.4
 49
2.0
 49
-0.2
 49
0.0
 49
-0.2
  0
LTYPE
  2
PHANTOM2
 70
0
  3
Phantom (.5x) ___ _ _ ___ _ _ ___ _ _ ___ _ _ ___
 72
65
 73
6
 40
1.25
 49
0.625
 49
-0.125
 49
0.125
 49
-0.125
 49
0.125
 49
-0.125
  0
LTYPE
  2
DASHDOT2
 70
0
  3
Dash dot (.5x) _ . _ . _ . _ . _ . _ . _ . _
 72
65
 73
4
 40
0.7
 49
0.5
 49
-0.1
 49
0.0
 49
-0.1
  0
ENDTAB
  0
TABLE
  2
LAYER
 70
5
  0
LAYER
  2
TABLEBACKGROUND
 70
0
 62
1
  6
CONTINUOUS
  0
LAYER
  2
DIMENSIONS
 70
0
 62
1
  6
CONTINUOUS
  0
LAYER
  2
TABLECONTENT
 70
0
 62
1
  6
CONTINUOUS
  0
LAYER
  2
TABLEGRID
 70
0
 62
1
  6
CONTINUOUS
  0
LAYER
  2
VIEWPORTS
 70
0
 62
7
  6
CONTINUOUS
  0
ENDTAB
  0
TABLE
  2
STYLE
 70
12
  0
STYLE
  2
ARIAL
 70
0
 40
0.0
 41
1.0
 42
1.0
 50
0.0
 71
0
  3
arial.ttf
  4

  0
STYLE
  2
ISOCPEUR
 70
0
 40
0.0
 41
1.0
 42
1.0
 50
0.0
 71
0
  3
isocpeur.ttf
  4

  0
STYLE
  2
ARIAL_BLACK
 70
0
 40
0.0
 41
1.0
 42
1.0
 50
0.0
 71
0
  3
ariblk.ttf
  4

  0
STYLE
  2
ARIAL_ITALIC
 70
0
 40
0.0
 41
1.0
 42
1.0
 50
0.0
 71
0
  3
ariali.ttf
  4

  0
STYLE
  2
TIMES_BOLD
 70
0
 40
0.0
 41
1.0
 42
1.0
 50
0.0
 71
0
  3
timesbd.ttf
  4

  0
STYLE
  2
TIMES
 70
0
 40
0.0
 41
1.0
 42
1.0
 50
0.0
 71
0
  3
times.ttf
  4

  0
STYLE
  2
ISOCPEUR_ITALIC
 70
0
 40
0.0
 41
1.0
 42
1.0
 50
0.0
 71
0
  3
isocpeui.ttf
  4

  0
STYLE
  2
ARIAL_BOLD
 70
0
 40
0.0
 41
1.0
 42
1.0
 50
0.0
 71
0
  3
arialbd.ttf
  4

  0
STYLE
  2
TIMES_BOLD_ITALIC
 70
0
 40
0.0
 41
1.0
 42
1.0
 50
0.0
 71
0
  3
timesbi.ttf
  4

  0
STYLE
  2
TIMES_ITALIC
 70
0
 40
0.0
 41
1.0
 42
1.0
 50
0.0
 71
0
  3
timesi.ttf
  4

  0
STYLE
  2
STANDARD
 70
0
 40
0.0
 41
1.0
 42
1.0
 50
0.0
 71
0
  3
arial.ttf
  4

  0
STYLE
  2
ARIAL_BOLD_ITALIC
 70
0
 40
0.0
 41
1.0
 42
1.0
 50
0.0
 71
0
  3
arialbi.ttf
  4

  0
ENDTAB
  0
TABLE
  2
VIEW
 70
0
  0
ENDTAB
  0
TABLE
  2
APPID
 70
1
  0
APPID
  2
DXFWRITE
 70
0
  0
ENDTAB
  0
TABLE
  2
VPORT
 70
0
  0
ENDTAB
  0
TABLE
  2
UCS
 70
0
  0
ENDTAB
  0
ENDSEC
  0
SECTION
  2
BLOCKS
  0
ENDSEC
  0
SECTION
  2
ENTITIES
  0
VIEWPORT
  8
VIEWPORTS
 67
1
 10
0.0
 20
0.0
 30
0.0
 40
1.0
 41
1.0
 68
1
 69
1
1001
ACAD
1000
MVIEW
1002
{
1070
16
1010
0.0
1020
0.0
1030
0.0
1010
0.0
1020
0.0
1030
0.0
1040
0.0
1040
1.0
1040
0.0
1040
0.0
1040
50.0
1040
0.0
1040
0.0
1070
0
1070
100
1070
1
1070
3
1070
0
1070
0
1070
0
1070
0
1040
0.0
1040
0.0
1040
0.0
1040
0.1
1040
0.1
1040
0.1
1040
0.1
1070
0
1002
{
1002
}
1002
}
  0
LINE
 62
5
  8
0
 10
253.091
 20
25.5001
 30
0.0
 11
260.308
 21
13.0
 31
0.0
  0
LINE
 62
5
  8
0
 10
260.308
 20
13.0
 30
0.0
 11
253.091
 21
0.5
 31
0.0
  0
LINE
 62
5
  8
0
 10
253.091
 20
0.5
 30
0.0
 11
238.657
 21
0.5
 31
0.0
  0
LINE
 62
5
  8
0
 10
238.657
 20
0.5
 30
0.0
 11
231.44
 21
13.0
 31
0.0
  0
LINE
 62
5
  8
0
 10
217.007
 20
13.0
 30
0.0
 11
209.79
 21
0.5
 31
0.0
  0
LINE
 62
5
  8
0
 10
209.79
 20
0.5
 30
0.0
 11
195.356
 21
0.5
 31
0.0
  0
LINE
 62
5
  8
0
 10
195.356
 20
0.5
 30
0.0
 11
188.139
 21
13.0
 31
0.0
  0
LINE
 62
5
  8
0
 10
173.705
 20
13.0
 30
0.0
 11
166.488
 21
0.5
 31
0.0
  0
LINE
 62
5
  8
0
 10
166.488
 20
0.5
 30
0.0
 11
152.054
 21
0.5
 31
0.0
  0
LINE
 62
5
  8
0
 10
152.054
 20
0.5
 30
0.0
 11
144.837
 21
13.0
 31
0.0
  0
LINE
 62
5
  8
0
 10
130.404
 20
13.0
 30
0.0
 11
123.187
 21
0.5
 31
0.0
  0
LINE
 62
5
  8
0
 10
123.187
 20
0.5
 30
0.0
 11
108.753
 21
0.5
 31
0.0
  0
LINE
 62
5
  8
0
 10
108.753
 20
0.5
 30
0.0
 11
101.536
 21
13.0
 31
0.0
  0
LINE
 62
5
  8
0
 10
87.1028
 20
13.0
 30
0.0
 11
79.8859
 21
0.5
 31
0.0
  0
LINE
 62
5
  8
0
 10
79.8859
 20
0.5
 30
0.0
 11
65.4521
 21
0.5
 31
0.0
  0
LINE
 62
5
  8
0
 10
65.4521
 20
0.5
 30
0.0
 11
58.2352
 21
13.0
 31
0.0
  0
LINE
 62
5
  8
0
 10
43.8018
 20
13.0
 30
0.0
 11
36.5849
 21
0.5
 31
0.0
  0
LINE
 62
5
  8
0
 10
36.5849
 20
0.5
 30
0.0
 11
22.1511
 21
0.5
 31
0.0
  0
LINE
 62
5
  8
0
 10
22.1511
 20
0.5
 30
0.0
 11
14.9342
 21
13.0
 31
0.0
  0
LINE
 62
5
  8
0
 10
0.5
 20
13.0
 30
0.0
 11
14.9338
 21
13.0
 31
0.0
  0
LINE
 62
5
  8
0
 10
14.9338
 20
13.0
 30
0.0
 11
22.1507
 21
25.5
 31
0.0
  0
LINE
 62
5
  8
0
 10
36.5844
 20
25.5
 30
0.0
 11
43.8013
 21
13.0
 31
0.0
  0
LINE
 62
5
  8
0
 10
43.8013
 20
13.0
 30
0.0
 11
58.2351
 21
13.0
 31
0.0
  0
LINE
 62
5
  8
0
 10
58.2351
 20
13.0
 30
0.0
 11
65.452
 21
25.5
 31
0.0
  0
LINE
 62
5
  8
0
 10
79.8857
 20
25.5
 30
0.0
 11
87.1026
 21
13.0
 31
0.0
  0
LINE
 62
5
  8
0
 10
87.1026
 20
13.0
 30
0.0
 11
101.536
 21
13.0
 31
0.0
  0
LINE
 62
5
  8
0
 10
101.536
 20
13.0
 30
0.0
 11
108.753
 21
25.5
 31
0.0
  0
LINE
 62
5
  8
0
 10
123.187
 20
25.5
 30
0.0
 11
130.404
 21
13.0
 31
0.0
  0
LINE
 62
5
  8
0
 10
130.404
 20
13.0
 30
0.0
 11
144.838
 21
13.0
 31
0.0
  0
LINE
 62
5
  8
0
 10
144.838
 20
13.0
 30
0.0
 11
152.055
 21
25.5
 31
0.0
  0
LINE
 62
5
  8
0
 10
166.488
 20
25.5
 30
0.0
 11
173.705
 21
13.0
 31
0.0
  0
LINE
 62
5
  8
0
 10
173.705
 20
13.0
 30
0.0
 11
188.139
 21
13.0
 31
0.0
  0
LINE
 62
5
  8
0
 10
188.139
 20
13.0
 30
0.0
 11
195.356
 21
25.5
 31
0.0
  0
LINE
 62
5
  8
0
 10
209.789
 20
25.5
 30
0.0
 11
217.006
 21
13.0
 31
0.0
  0
LINE
 62
5
  8
0
 10
217.006
 20
13.0
 30
0.0
 11
231.44
 21
13.0
 31
0.0
  0
LINE
 62
5
  8
0
 10
231.44
 20
13.0
 30
0.0
 11
238.657
 21
25.5
 31
0.0
  0
LINE
 62
5
  8
0
 10
253.091
 20
50.5001
 30
0.0
 11
260.308
 21
38.0
 31
0.0
  0
LINE
 62
5
  8
0
 10
260.308
 20
38.0
 30
0.0
 11
253.091
 21
25.5
 31
0.0
  0
LINE
 62
5
  8
0
 10
253.091
 20
25.5
 30
0.0
 11
238.657
 21
25.5
 31
0.0
  0
LINE
 62
5
  8
0
 10
238.657
 20
25.5
 30
0.0
 11
231.44
 21
38.0
 31
0.0
  0
LINE
 62
5
  8
0
 10
217.007
 20
38.0
 30
0.0
 11
209.79
 21
25.5
 31
0.0
  0
LINE
 62
5
  8
0
 10
209.79
 20
25.5
 30
0.0
 11
195.356
 21
25.5
 31
0.0
  0
LINE
 62
5
  8
0
 10
195.356
 20
25.5
 30
0.0
 11
188.139
 21
38.0
 31
0.0
  0
LINE
 62
5
  8
0
 10
173.705
 20
38.0
 30
0.0
 11
166.488
 21
25.5
 31
0.0
  0
LINE
 62
5
  8
0
 10
166.488
 20
25.5
 30
0.0
 11
152.054
 21
25.5
 31
0.0
  0
LINE
 62
5
  8
0
 10
152.054
 20
25.5
 30
0.0
 11
144.837
 21
38.0
 31
0.0
  0
LINE
 62
5
  8
0
 10
130.404
 20
38.0
 30
0.0
 11
123.187
 21
25.5
 31
0.0
  0
LINE
 62
5
  8
0
 10
123.187
 20
25.5
 30
0.0
 11
108.753
 21
25.5
 31
0.0
  0
LINE
 62
5
  8
0
 10
108.753
 20
25.5
 30
0.0
 11
101.536
 21
38.0
 31
0.0
  0
LINE
 62
5
  8
0
 10
87.1028
 20
38.0
 30
0.0
 11
79.8859
 21
25.5
 31
0.0
  0
LINE
 62
5
  8
0
 10
79.8859
 20
25.5
 30
0.0
 11
65.4521
 21
25.5
 31
0.0
  0
LINE
 62
5
  8
0
 10
65.4521
 20
25.5
 30
0.0
 11
58.2352
 21
38.0
 31
0.0
  0
LINE
 62
5
  8
0
 10
43.8018
 20
38.0
 30
0.0
 11
36.5849
 21
25.5
 31
0.0
  0
LINE
 62
5
  8
0
 10
36.5849
 20
25.5
 30
0.0
 11
22.1511
 21
25.5
 31
0.0
  0
LINE
 62
5
  8
0
 10
22.1511
 20
25.5
 30
0.0
 11
14.9342
 21
38.0
 31
0.0
  0
LINE
 62
5
  8
0
 10
0.5
 20
38.0
 30
0.0
 11
14.9338
 21
38.0
 31
0.0
  0
LINE
 62
5
  8
0
 10
14.9338
 20
38.0
 30
0.0
 11
22.1507
 21
50.5
 31
0.0
  0
LINE
 62
5
  8
0
 10
36.5844
 20
50.5
 30
0.0
 11
43.8013
 21
38.0
 31
0.0
  0
LINE
 62
5
  8
0
 10
43.8013
 20
38.0
 30
0.0
 11
58.2351
 21
38.0
 31
0.0
  0
LINE
 62
5
  8
0
 10
58.2351
 20
38.0
 30
0.0
 11
65.452
 21
50.5
 31
0.0
  0
LINE
 62
5
  8
0
 10
79.8857
 20
50.5
 30
0.0
 11
87.1026
 21
38.0
 31
0.0
  0
LINE
 62
5
  8
0
 10
87.1026
 20
38.0
 30
0.0
 11
101.536
 21
38.0
 31
0.0
  0
LINE
 62
5
  8
0
 10
101.536
 20
38.0
 30
0.0
 11
108.753
 21
50.5
 31
0.0
  0
LINE
 62
5
  8
0
 10
123.187
 20
50.5
 30
0.0
 11
130.404
 21
38.0
 31
0.0
  0
LINE
 62
5
  8
0
 10
130.404
 20
38.0
 30
0.0
 11
144.838
 21
38.0
 31
0.0
  0
LINE
 62
5
  8
0
 10
144.838
 20
38.0
 30
0.0
 11
152.055
 21
50.5
 31
0.0
  0
LINE
 62
5
  8
0
 10
166.488
 20
50.5
 30
0.0
 11
173.705
 21
38.0
 31
0.0
  0
LINE
 62
5
  8
0
 10
173.705
 20
38.0
 30
0.0
 11
188.139
 21
38.0
 31
0.0
  0
LINE
 62
5
  8
0
 10
188.139
 20
38.0
 30
0.0
 11
195.356
 21
50.5
 31
0.0
  0
LINE
 62
5
  8
0
 10
209.789
 20
50.5
 30
0.0
 11
217.006
 21
38.0
 31
0.0
  0
LINE
 62
5
  8
0
 10
217.006
 20
38.0
 30
0.0
 11
231.44
 21
38.0
 31
0.0
  0
LINE
 62
5
  8
0
 10
231.44
 20
38.0
 30
0.0
 11
238.657
 21
50.5
 31
0.0
  0
LINE
 62
5
  8
0
 10
253.091
 20
75.5001
 30
0.0
 11
260.308
 21
63.0
 31
0.0
  0
LINE
 62
5
  8
0
 10
260.308
 20
63.0
 30
0.0
 11
253.091
 21
50.5
 31
0.0
  0
LINE
 62
5
  8
0
 10
253.091
 20
50.5
 30
0.0
 11
238.657
 21
50.5
 31
0.0
  0
LINE
 62
5
  8
0
 10
238.657
 20
50.5
 30
0.0
 11
231.44
 21
63.0
 31
0.0
  0
LINE
 62
5
  8
0
 10
217.007
 20
63.0
 30
0.0
 11
209.79
 21
50.5
 31
0.0
  0
LINE
 62
5
  8
0
 10
209.79
 20
50.5
 30
0.0
 11
195.356
 21
50.5
 31
0.0
  0
LINE
 62
5
  8
0
 10
195.356
 20
50.5
 30
0.0
 11
188.139
 21
63.0
 31
0.0
  0
LINE
 62
5
  8
0
 10
173.705
 20
63.0
 30
0.0
 11
166.488
 21
50.5
 31
0.0
  0
LINE
 62
5
  8
0
 10
166.488
 20
50.5
 30
0.0
 11
152.054
 21
50.5
 31
0.0
  0
LINE
 62
5
  8
0
 10
152.054
 20
50.5
 30
0.0
 11
144.837
 21
63.0
 31
0.0
  0
LINE
 62
5
  8
0
 10
130.404
 20
63.0
 30
0.0
 11
123.187
 21
50.5
 31
0.0
  0
LINE
 62
5
  8
0
 10
123.187
 20
50.5
 30
0.0
 11
108.753
 21
50.5
 31
0.0
  0
LINE
 62
5
  8
0
 10
108.753
 20
50.5
 30
0.0
 11
101.536
 21
63.0
 31
0.0
  0
LINE
 62
5
  8
0
 10
87.1028
 20
63.0
 30
0.0
 11
79.8859
 21
50.5
 31
0.0
  0
LINE
 62
5
  8
0
 10
79.8859
 20
50.5
 30
0.0
 11
65.4521
 21
50.5
 31
0.0
  0
LINE
 62
5
  8
0
 10
65.4521
 20
50.5
 30
0.0
 11
58.2352
 21
63.0
 31
0.0
  0
LINE
 62
5
  8
0
 10
43.8018
 20
63.0
 30
0.0
 11
36.5849
 21
50.5
 31
0.0
  0
LINE
 62
5
  8
0
 10
36.5849
 20
50.5
 30
0.0
 11
22.1511
 21
50.5
 31
0.0
  0
LINE
 62
5
  8
0
 10
22.1511
 20
50.5
 30
0.0
 11
14.9342
 21
63.0
 31
0.0
  0
LINE
 62
5
  8
0
 10
0.5
 20
63.0
 30
0.0
 11
14.9338
 21
63.0
 31
0.0
  0
LINE
 62
5
  8
0
 10
14.9338
 20
63.0
 30
0.0
 11
22.1507
 21
75.5
 31
0.0
  0
LINE
 62
5
  8
0
 10
36.5844
 20
75.5
 30
0.0
 11
43.8013
 21
63.0
 31
0.0
  0
LINE
 62
5
  8
0
 10
43.8013
 20
63.0
 30
0.0
 11
58.2351
 21
63.0
 31
0.0
  0
LINE
 62
5
  8
0
 10
58.2351
 20
63.0
 30
0.0
 11
65.452
 21
75.5
 31
0.0
  0
LINE
 62
5
  8
0
 10
79.8857
 20
75.5
 30
0.0
 11
87.1026
 21
63.0
 31
0.0
  0
LINE
 62
5
  8
0
 10
87.1026
 20
63.0
 30
0.0
 11
101.536
 21
63.0
 31
0.0
  0
LINE
 62
5
  8
0
 10
101.536
 20
63.0
 30
0.0
 11
108.753
 21
75.5
 31
0.0
  0
LINE
 62
5
  8
0
 10
123.187
 20
75.5
 30
0.0
 11
130.404
 21
63.0
 31
0.0
  0
LINE
 62
5
  8
0
 10
130.404
 20
63.0
 30
0.0
 11
144.838
 21
63.0
 31
0.0
  0
LINE
 62
5
  8
0
 10
144.838
 20
63.0
 30
0.0
 11
152.055
 21
75.5
 31
0.0
  0
LINE
 62
5
  8
0
 10
166.488
 20
75.5
 30
0.0
 11
173.705
 21
63.0
 31
0.0
  0
LINE
 62
5
  8
0
 10
173.705
 20
63.0
 30
0.0
 11
188.139
 21
63.0
 31
0.0
  0
LINE
 62
5
  8
0
 10
188.139
 20
63.0
 30
0.0
 11
195.356
 21
75.5
 31
0.0
  0
LINE
 62
5
  8
0
 10
209.789
 20
75.5
 30
0.0
 11
217.006
 21
63.0
 31
0.0
  0
LINE
 62
5
  8
0
 10
217.006
 20
63.0
 30
0.0
 11
231.44
 21
63.0
 31
0.0
  0
LINE
 62
5
  8
0
 10
231.44
 20
63.0
 30
0.0
 11
238.657
 21
75.5
 31
0.0
  0
LINE
 62
5
  8
0
 10
253.091
 20
100.5
 30
0.0
 11
260.308
 21
88.0
 31
0.0
  0
LINE
 62
5
  8
0
 10
260.308
 20
88.0
 30
0.0
 11
253.091
 21
75.5
 31
0.0
  0
LINE
 62
5
  8
0
 10
253.091
 20
75.5
 30
0.0
 11
238.657
 21
75.5
 31
0.0
  0
LINE
 62
5
  8
0
 10
238.657
 20
75.5
 30
0.0
 11
231.44
 21
88.0
 31
0.0
  0
LINE
 62
5
  8
0
 10
217.007
 20
88.0
 30
0.0
 11
209.79
 21
75.5
 31
0.0
  0
LINE
 62
5
  8
0
 10
209.79
 20
75.5
 30
0.0
 11
195.356
 21
75.5
 31
0.0
  0
LINE
 62
5
  8
0
 10
195.356
 20
75.5
 30
0.0
 11
188.139
 21
88.0
 31
0.0
  0
LINE
 62
5
  8
0
 10
173.705
 20
88.0
 30
0.0
 11
166.488
 21
75.5
 31
0.0
  0
LINE
 62
5
  8
0
 10
166.488
 20
75.5
 30
0.0
 11
152.054
 21
75.5
 31
0.0
  0
LINE
 62
5
  8
0
 10
152.054
 20
75.5
 30
0.0
 11
144.837
 21
88.0
 31
0.0
  0
LINE
 62
5
  8
0
 10
130.404
 20
88.0
 30
0.0
 11
123.187
 21
75.5
 31
0.0
  0
LINE
 62
5
  8
0
 10
123.187
 20
75.5
 30
0.0
 11
108.753
 21
75.5
 31
0.0
  0
LINE
 62
5
  8
0
 10
108.753
 20
75.5
 30
0.0
 11
101.536
 21
88.0
 31
0.0
  0
LINE
 62
5
  8
0
 10
87.1028
 20
88.0
 30
0.0
 11
79.8859
 21
75.5
 31
0.0
  0
LINE
 62
5
  8
0
 10
79.8859
 20
75.5
 30
0.0
 11
65.4521
 21
75.5
 31
0.0
  0
LINE
 62
5
  8
0
 10
65.4521
 20
75.5
 30
0.0
 11
58.2352
 21
88.0
 31
0.0
  0
LINE
 62
5
  8
0
 10
43.8018
 20
88.0
 30
0.0
 11
36.5849
 21
75.5
 31
0.0
  0
LINE
 62
5
  8
0
 10
36.5849
 20
75.5
 30
0.0
 11
22.1511
 21
75.5
 31
0.0
  0
LINE
 62
5
  8
0
 10
22.1511
 20
75.5
 30
0.0
 11
14.9342
 21
88.0
 31
0.0
  0
LINE
 62
5
  8
0
 10
0.5
 20
88.0
 30
0.0
 11
14.9338
 21
88.0
 31
0.0
  0
LINE
 62
5
  8
0
 10
14.9338
 20
88.0
 30
0.0
 11
22.1507
 21
100.5
 31
0.0
  0
LINE
 62
5
  8
0
 10
36.5844
 20
100.5
 30
0.0
 11
43.8013
 21
88.0
 31
0.0
  0
LINE
 62
5
  8
0
 10
43.8013
 20
88.0
 30
0.0
 11
58.2351
 21
88.0
 31
0.0
  0
LINE
 62
5
  8
0
 10
58.2351
 20
88.0
 30
0.0
 11
65.452
 21
100.5
 31
0.0
  0
LINE
 62
5
  8
0
 10
79.8857
 20
100.5
 30
0.0
 11
87.1026
 21
88.0
 31
0.0
  0
LINE
 62
5
  8
0
 10
87.1026
 20
88.0
 30
0.0
 11
101.536
 21
88.0
 31
0.0
  0
LINE
 62
5
  8
0
 10
101.536
 20
88.0
 30
0.0
 11
108.753
 21
100.5
 31
0.0
  0
LINE
 62
5
  8
0
 10
123.187
 20
100.5
 30
0.0
 11
130.404
 21
88.0
 31
0.0
  0
LINE
 62
5
  8
0
 10
130.404
 20
88.0
 30
0.0
 11
144.838
 21
88.0
 31
0.0
  0
LINE
 62
5
  8
0
 10
144.838
 20
88.0
 30
0.0
 11
152.055
 21
100.5
 31
0.0
  0
LINE
 62
5
  8
0
 10
166.488
 20
100.5
 30
0.0
 11
173.705
 21
88.0
 31
0.0
  0
LINE
 62
5
  8
0
 10
173.705
 20
88.0
 30
0.0
 11
188.139
 21
88.0
 31
0.0
  0
LINE
 62
5
  8
0
 10
188.139
 20
88.0
 30
0.0
 11
195.356
 21
100.5
 31
0.0
  0
LINE
 62
5
  8
0
 10
209.789
 20
100.5
 30
0.0
 11
217.006
 21
88.0
 31
0.0
  0
LINE
 62
5
  8
0
 10
217.006
 20
88.0
 30
0.0
 11
231.44
 21
88.0
 31
0.0
  0
LINE
 62
5
  8
0
 10
231.44
 20
88.0
 30
0.0
 11
238.657
 21
100.5
 31
0.0
  0
LINE
 62
5
  8
0
 10
253.091
 20
125.5
 30
0.0
 11
260.308
 21
113.0
 31
0.0
  0
LINE
 62
5
  8
0
 10
260.308
 20
113.0
 30
0.0
 11
253.091
 21
100.5
 31
0.0
  0
LINE
 62
5
  8
0
 10
253.091
 20
100.5
 30
0.0
 11
238.657
 21
100.5
 31
0.0
  0
LINE
 62
5
  8
0
 10
238.657
 20
100.5
 30
0.0
 11
231.44
 21
113.0
 31
0.0
  0
LINE
 62
5
  8
0
 10
217.007
 20
113.0
 30
0.0
 11
209.79
 21
100.5
 31
0.0
  0
LINE
 62
5
  8
0
 10
209.79
 20
100.5
 30
0.0
 11
195.356
 21
100.5
 31
0.0
  0
LINE
 62
5
  8
0
 10
195.356
 20
100.5
 30
0.0
 11
188.139
 21
113.0
 31
0.0
  0
LINE
 62
5
  8
0
 10
173.705
 20
113.0
 30
0.0
 11
166.488
 21
100.5
 31
0.0
  0
LINE
 62
5
  8
0
 10
166.488
 20
100.5
 30
0.0
 11
152.054
 21
100.5
 31
0.0
  0
LINE
 62
5
  8
0
 10
152.054
 20
100.5
 30
0.0
 11
144.837
 21
113.0
 31
0.0
  0
LINE
 62
5
  8
0
 10
130.404
 20
113.0
 30
0.0
 11
123.187
 21
100.5
 31
0.0
  0
LINE
 62
5
  8
0
 10
123.187
 20
100.5
 30
0.0
 11
108.753
 21
100.5
 31
0.0
  0
LINE
 62
5
  8
0
 10
108.753
 20
100.5
 30
0.0
 11
101.536
 21
113.0
 31
0.0
  0
LINE
 62
5
  8
0
 10
87.1028
 20
113.0
 30
0.0
 11
79.8859
 21
100.5
 31
0.0
  0
LINE
 62
5
  8
0
 10
79.8859
 20
100.5
 30
0.0
 11
65.4521
 21
100.5
 31
0.0
  0
LINE
 62
5
  8
0
 10
65.4521
 20
100.5
 30
0.0
 11
58.2352
 21
113.0
 31
0.0
  0
LINE
 62
5
  8
0
 10
43.8018
 20
113.0
 30
0.0
 11
36.5849
 21
100.5
 31
0.0
  0
LINE
 62
5
  8
0
 10
36.5849
 20
100.5
 30
0.0
 11
22.1511
 21
100.5
 31
0.0
  0
LINE
 62
5
  8
0
 10
22.1511
 20
100.5
 30
0.0
 11
14.9342
 21
113.0
 31
0.0
  0
LINE
 62
5
  8
0
 10
0.5
 20
113.0
 30
0.0
 11
14.9338
 21
113.0
 31
0.0
  0
LINE
 62
5
  8
0
 10
14.9338
 20
113.0
 30
0.0
 11
22.1507
 21
125.5
 31
0.0
  0
LINE
 62
5
  8
0
 10
36.5844
 20
125.5
 30
0.0
 11
43.8013
 21
113.0
 31
0.0
  0
LINE
 62
5
  8
0
 10
43.8013
 20
113.0
 30
0.0
 11
58.2351
 21
113.0
 31
0.0
  0
LINE
 62
5
  8
0
 10
58.2351
 20
113.0
 30
0.0
 11
65.452
 21
125.5
 31
0.0
  0
LINE
 62
5
  8
0
 10
79.8857
 20
125.5
 30
0.0
 11
87.1026
 21
113.0
 31
0.0
  0
LINE
 62
5
  8
0
 10
87.1026
 20
113.0
 30
0.0
 11
101.536
 21
113.0
 31
0.0
  0
LINE
 62
5
  8
0
 10
101.536
 20
113.0
 30
0.0
 11
108.753
 21
125.5
 31
0.0
  0
LINE
 62
5
  8
0
 10
123.187
 20
125.5
 30
0.0
 11
130.404
 21
113.0
 31
0.0
  0
LINE
 62
5
  8
0
 10
130.404
 20
113.0
 30
0.0
 11
144.838
 21
113.0
 31
0.0
  0
LINE
 62
5
  8
0
 10
144.838
 20
113.0
 30
0.0
 11
152.055
 21
125.5
 31
0.0
  0
LINE
 62
5
  8
0
 10
166.488
 20
125.5
 30
0.0
 11
173.705
 21
113.0
 31
0.0
  0
LINE
 62
5
  8
0
 10
173.705
 20
113.0
 30
0.0
 11
188.139
 21
113.0
 31
0.0
  0
LINE
 62
5
  8
0
 10
188.139
 20
113.0
 30
0.0
 11
195.356
 21
125.5
 31
0.0
  0
LINE
 62
5
  8
0
 10
209.789
 20
125.5
 30
0.0
 11
217.006
 21
113.0
 31
0.0
  0
LINE
 62
5
  8
0
 10
217.006
 20
113.0
 30
0.0
 11
231.44
 21
113.0
 31
0.0
  0
LINE
 62
5
  8
0
 10
231.44
 20
113.0
 30
0.0
 11
238.657
 21
125.5
 31
0.0
  0
LINE
 62
5
  8
0
 10
253.091
 20
150.5
 30
0.0
 11
260.308
 21
138.0
 31
0.0
  0
LINE
 62
5
  8
0
 10
260.308
 20
138.0
 30
0.0
 11
253.091
 21
125.5
 31
0.0
  0
LINE
 62
5
  8
0
 10
253.091
 20
125.5
 30
0.0
 11
238.657
 21
125.5
 31
0.0
  0
LINE
 62
5
  8
0
 10
238.657
 20
125.5
 30
0.0
 11
231.44
 21
138.0
 31
0.0
  0
LINE
 62
5
  8
0
 10
217.007
 20
138.0
 30
0.0
 11
209.79
 21
125.5
 31
0.0
  0
LINE
 62
5
  8
0
 10
209.79
 20
125.5
 30
0.0
 11
195.356
 21
125.5
 31
0.0
  0
LINE
 62
5
  8
0
 10
195.356
 20
125.5
 30
0.0
 11
188.139
 21
138.0
 31
0.0
  0
LINE
 62
5
  8
0
 10
173.705
 20
138.0
 30
0.0
 11
166.488
 21
125.5
 31
0.0
  0
LINE
 62
5
  8
0
 10
166.488
 20
125.5
 30
0.0
 11
152.054
 21
125.5
 31
0.0
  0
LINE
 62
5
  8
0
 10
152.054
 20
125.5
 30
0.0
 11
144.837
 21
138.0
 31
0.0
  0
LINE
 62
5
  8
0
 10
130.404
 20
138.0
 30
0.0
 11
123.187
 21
125.5
 31
0.0
  0
LINE
 62
5
  8
0
 10
123.187
 20
125.5
 30
0.0
 11
108.753
 21
125.5
 31
0.0
  0
LINE
 62
5
  8
0
 10
108.753
 20
125.5
 30
0.0
 11
101.536
 21
138.0
 31
0.0
  0
LINE
 62
5
  8
0
 10
87.1028
 20
138.0
 30
0.0
 11
79.8859
 21
125.5
 31
0.0
  0
LINE
 62
5
  8
0
 10
79.8859
 20
125.5
 30
0.0
 11
65.4521
 21
125.5
 31
0.0
  0
LINE
 62
5
  8
0
 10
65.4521
 20
125.5
 30
0.0
 11
58.2352
 21
138.0
 31
0.0
  0
LINE
 62
5
  8
0
 10
43.8018
 20
138.0
 30
0.0
 11
36.5849
 21
125.5
 31
0.0
  0
LINE
 62
5
  8
0
 10
36.5849
 20
125.5
 30
0.0
 11
22.1511
 21
125.5
 31
0.0
  0
LINE
 62
5
  8
0
 10
22.1511
 20
125.5
 30
0.0
 11
14.9342
 21
138.0
 31
0.0
  0
LINE
 62
5
  8
0
 10
0.5
 20
138.0
 30
0.0
 11
14.9338
 21
138.0
 31
0.0
  0
LINE
 62
5
  8
0
 10
14.9338
 20
138.0
 30
0.0
 11
22.1507
 21
150.5
 31
0.0
  0
LINE
 62
5
  8
0
 10
36.5844
 20
150.5
 30
0.0
 11
43.8013
 21
138.0
 31
0.0
  0
LINE
 62
5
  8
0
 10
43.8013
 20
138.0
 30
0.0
 11
58.2351
 21
138.0
 31
0.0
  0
LINE
 62
5
  8
0
 10
58.2351
 20
138.0
 30
0.0
 11
65.452
 21
150.5
 31
0.0
  0
LINE
 62
5
  8
0
 10
79.8857
 20
150.5
 30
0.0
 11
87.1026
 21
138.0
 31
0.0
  0
LINE
 62
5
  8
0
 10
87.1026
 20
138.0
 30
0.0
 11
101.536
 21
138.0
 31
0.0
  0
LINE
 62
5
  8
0
 10
101.536
 20
138.0
 30
0.0
 11
108.753
 21
150.5
 31
0.0
  0
LINE
 62
5
  8
0
 10
123.187
 20
150.5
 30
0.0
 11
130.404
 21
138.0
 31
0.0
  0
LINE
 62
5
  8
0
 10
130.404
 20
138.0
 30
0.0
 11
144.838
 21
138.0
 31
0.0
  0
LINE
 62
5
  8
0
 10
144.838
 20
138.0
 30
0.0
 11
152.055
 21
150.5
 31
0.0
  0
LINE
 62
5
  8
0
 10
166.488
 20
150.5
 30
0.0
 11
173.705
 21
138.0
 31
0.0
  0
LINE
 62
5
  8
0
 10
173.705
 20
138.0
 30
0.0
 11
188.139
 21
138.0
 31
0.0
  0
LINE
 62
5
  8
0
 10
188.139
 20
138.0
 30
0.0
 11
195.356
 21
150.5
 31
0.0
  0
LINE
 62
5
  8
0
 10
209.789
 20
150.5
 30
0.0
 11
217.006
 21
138.0
 31
0.0
  0
LINE
 62
5
  8
0
 10
217.006
 20
138.0
 30
0.0
 11
231.44
 21
138.0
 31
0.0
  0
LINE
 62
5
  8
0
 10
231.44
 20
138.0
 30
0.0
 11
238.657
 21
150.5
 31
0.0
  0
LINE
 62
5
  8
0
 10
253.091
 20
175.5
 30
0.0
 11
260.308
 21
163.0
 31
0.0
  0
LINE
 62
5
  8
0
 10
260.308
 20
163.0
 30
0.0
 11
253.091
 21
150.5
 31
0.0
  0
LINE
 62
5
  8
0
 10
253.091
 20
150.5
 30
0.0
 11
238.657
 21
150.5
 31
0.0
  0
LINE
 62
5
  8
0
 10
238.657
 20
150.5
 30
0.0
 11
231.44
 21
163.0
 31
0.0
  0
LINE
 62
5
  8
0
 10
217.007
 20
163.0
 30
0.0
 11
209.79
 21
150.5
 31
0.0
  0
LINE
 62
5
  8
0
 10
209.79
 20
150.5
 30
0.0
 11
195.356
 21
150.5
 31
0.0
  0
LINE
 62
5
  8
0
 10
195.356
 20
150.5
 30
0.0
 11
188.139
 21
163.0
 31
0.0
  0
LINE
 62
5
  8
0
 10
173.705
 20
163.0
 30
0.0
 11
166.488
 21
150.5
 31
0.0
  0
LINE
 62
5
  8
0
 10
166.488
 20
150.5
 30
0.0
 11
152.054
 21
150.5
 31
0.0
  0
LINE
 62
5
  8
0
 10
152.054
 20
150.5
 30
0.0
 11
144.837
 21
163.0
 31
0.0
  0
LINE
 62
5
  8
0
 10
130.404
 20
163.0
 30
0.0
 11
123.187
 21
150.5
 31
0.0
  0
LINE
 62
5
  8
0
 10
123.187
 20
150.5
 30
0.0
 11
108.753
 21
150.5
 31
0.0
  0
LINE
 62
5
  8
0
 10
108.753
 20
150.5
 30
0.0
 11
101.536
 21
163.0
 31
0.0
  0
LINE
 62
5
  8
0
 10
87.1028
 20
163.0
 30
0.0
 11
79.8859
 21
150.5
 31
0.0
  0
LINE
 62
5
  8
0
 10
79.8859
 20
150.5
 30
0.0
 11
65.4521
 21
150.5
 31
0.0
  0
LINE
 62
5
  8
0
 10
65.4521
 20
150.5
 30
0.0
 11
58.2352
 21
163.0
 31
0.0
  0
LINE
 62
5
  8
0
 10
43.8018
 20
163.0
 30
0.0
 11
36.5849
 21
150.5
 31
0.0
  0
LINE
 62
5
  8
0
 10
36.5849
 20
150.5
 30
0.0
 11
22.1511
 21
150.5
 31
0.0
  0
LINE
 62
5
  8
0
 10
22.1511
 20
150.5
 30
0.0
 11
14.9342
 21
163.0
 31
0.0
  0
LINE
 62
5
  8
0
 10
0.5
 20
163.0
 30
0.0
 11
14.9338
 21
163.0
 31
0.0
  0
LINE
 62
5
  8
0
 10
14.9338
 20
163.0
 30
0.0
 11
22.1507
 21
175.5
 31
0.0
  0
LINE
 62
5
  8
0
 10
36.5844
 20
175.5
 30
0.0
 11
43.8013
 21
163.0
 31
0.0
  0
LINE
 62
5
  8
0
 10
43.8013
 20
163.0
 30
0.0
 11
58.2351
 21
163.0
 31
0.0
  0
LINE
 62
5
  8
0
 10
58.2351
 20
163.0
 30
0.0
 11
65.452
 21
175.5
 31
0.0
  0
LINE
 62
5
  8
0
 10
79.8857
 20
175.5
 30
0.0
 11
87.1026
 21
163.0
 31
0.0
  0
LINE
 62
5
  8
0
 10
87.1026
 20
163.0
 30
0.0
 11
101.536
 21
163.0
 31
0.0
  0
LINE
 62
5
  8
0
 10
101.536
 20
163.0
 30
0.0
 11
108.753
 21
175.5
 31
0.0
  0
LINE
 62
5
  8
0
 10
123.187
 20
175.5
 30
0.0
 11
130.404
 21
163.0
 31
0.0
  0
LINE
 62
5
  8
0
 10
130.404
 20
163.0
 30
0.0
 11
144.838
 21
163.0
 31
0.0
  0
LINE
 62
5
  8
0
 10
144.838
 20
163.0
 30
0.0
 11
152.055
 21
175.5
 31
0.0
  0
LINE
 62
5
  8
0
 10
166.488
 20
175.5
 30
0.0
 11
173.705
 21
163.0
 31
0.0
  0
LINE
 62
5
  8
0
 10
173.705
 20
163.0
 30
0.0
 11
188.139
 21
163.0
 31
0.0
  0
LINE
 62
5
  8
0
 10
188.139
 20
163.0
 30
0.0
 11
195.356
 21
175.5
 31
0.0
  0
LINE
 62
5
  8
0
 10
209.789
 20
175.5
 30
0.0
 11
217.006
 21
163.0
 31
0.0
  0
LINE
 62
5
  8
0
 10
217.006
 20
163.0
 30
0.0
 11
231.44
 21
163.0
 31
0.0
  0
LINE
 62
5
  8
0
 10
231.44
 20
163.0
 30
0.0
 11
238.657
 21
175.5
 31
0.0
  0
LINE
 62
5
  8
0
 10
253.091
 20
200.5
 30
0.0
 11
260.308
 21
188.0
 31
0.0
  0
LINE
 62
5
  8
0
 10
260.308
 20
188.0
 30
0.0
 11
253.091
 21
175.5
 31
0.0
  0
LINE
 62
5
  8
0
 10
253.091
 20
175.5
 30
0.0
 11
238.657
 21
175.5
 31
0.0
  0
LINE
 62
5
  8
0
 10
238.657
 20
175.5
 30
0.0
 11
231.44
 21
188.0
 31
0.0
  0
LINE
 62
5
  8
0
 10
217.007
 20
188.0
 30
0.0
 11
209.79
 21
175.5
 31
0.0
  0
LINE
 62
5
  8
0
 10
209.79
 20
175.5
 30
0.0
 11
195.356
 21
175.5
 31
0.0
  0
LINE
 62
5
  8
0
 10
195.356
 20
175.5
 30
0.0
 11
188.139
 21
188.0
 31
0.0
  0
LINE
 62
5
  8
0
 10
173.705
 20
188.0
 30
0.0
 11
166.488
 21
175.5
 31
0.0
  0
LINE
 62
5
  8
0
 10
166.488
 20
175.5
 30
0.0
 11
152.054
 21
175.5
 31
0.0
  0
LINE
 62
5
  8
0
 10
152.054
 20
175.5
 30
0.0
 11
144.837
 21
188.0
 31
0.0
  0
LINE
 62
5
  8
0
 10
130.404
 20
188.0
 30
0.0
 11
123.187
 21
175.5
 31
0.0
  0
LINE
 62
5
  8
0
 10
123.187
 20
175.5
 30
0.0
 11
108.753
 21
175.5
 31
0.0
  0
LINE
 62
5
  8
0
 10
108.753
 20
175.5
 30
0.0
 11
101.536
 21
188.0
 31
0.0
  0
LINE
 62
5
  8
0
 10
87.1028
 20
188.0
 30
0.0
 11
79.8859
 21
175.5
 31
0.0
  0
LINE
 62
5
  8
0
 10
79.8859
 20
175.5
 30
0.0
 11
65.4521
 21
175.5
 31
0.0
  0
LINE
 62
5
  8
0
 10
65.4521
 20
175.5
 30
0.0
 11
58.2352
 21
188.0
 31
0.0
  0
LINE
 62
5
  8
0
 10
43.8018
 20
188.0
 30
0.0
 11
36.5849
 21
175.5
 31
0.0
  0
LINE
 62
5
  8
0
 10
36.5849
 20
175.5
 30
0.0
 11
22.1511
 21
175.5
 31
0.0
  0
LINE
 62
5
  8
0
 10
22.1511
 20
175.5
 30
0.0
 11
14.9342
 21
188.0
 31
0.0
  0
LINE
 62
5
  8
0
 10
0.5
 20
188.0
 30
0.0
 11
14.9338
 21
188.0
 31
0.0
  0
LINE
 62
5
  8
0
 10
14.9338
 20
188.0
 30
0.0
 11
22.1507
 21
200.5
 31
0.0
  0
LINE
 62
5
  8
0
 10
36.5844
 20
200.5
 30
0.0
 11
43.8013
 21
188.0
 31
0.0
  0
LINE
 62
5
  8
0
 10
43.8013
 20
188.0
 30
0.0
 11
58.2351
 21
188.0
 31
0.0
  0
LINE
 62
5
  8
0
 10
58.2351
 20
188.0
 30
0.0
 11
65.452
 21
200.5
 31
0.0
  0
LINE
 62
5
  8
0
 10
79.8857
 20
200.5
 30
0.0
 11
87.1026
 21
188.0
 31
0.0
  0
LINE
 62
5
  8
0
 10
87.1026
 20
188.0
 30
0.0
 11
101.536
 21
188.0
 31
0.0
  0
LINE
 62
5
  8
0
 10
101.536
 20
188.0
 30
0.0
 11
108.753
 21
200.5
 31
0.0
  0
LINE
 62
5
  8
0
 10
123.187
 20
200.5
 30
0.0
 11
130.404
 21
188.0
 31
0.0
  0
LINE
 62
5
  8
0
 10
130.404
 20
188.0
 30
0.0
 11
144.838
 21
188.0
 31
0.0
  0
LINE
 62
5
  8
0
 10
144.838
 20
188.0
 30
0.0
 11
152.055
 21
200.5
 31
0.0
  0
LINE
 62
5
  8
0
 10
166.488
 20
200.5
 30
0.0
 11
173.705
 21
188.0
 31
0.0
  0
LINE
 62
5
  8
0
 10
173.705
 20
188.0
 30
0.0
 11
188.139
 21
188.0
 31
0.0
  0
LINE
 62
5
  8
0
 10
188.139
 20
188.0
 30
0.0
 11
195.356
 21
200.5
 31
0.0
  0
LINE
 62
5
  8
0
 10
209.789
 20
200.5
 30
0.0
 11
217.006
 21
188.0
 31
0.0
  0
LINE
 62
5
  8
0
 10
217.006
 20
188.0
 30
0.0
 11
231.44
 21
188.0
 31
0.0
  0
LINE
 62
5
  8
0
 10
231.44
 20
188.0
 30
0.0
 11
238.657
 21
200.5
 31
0.0
  0
CIRCLE
 62
6
  8
0
 10
26.41
 20
13.5
 30
0.0
 40
4.0
  0
CIRCLE
 62
6
  8
0
 10
134.41
 20
13.5
 30
0.0
 40
4.0
  0
CIRCLE
 62
6
  8
0
 10
242.41
 20
13.5
 30
0.0
 40
4.0
  0
LINE
 62
1
  8
0
 10
0.0
 20
0.0
 30
0.0
 11
260.808
 21
0.0
 31
0.0
  0
LINE
 62
1
  8
0
 10
260.808
 20
0.0
 30
0.0
 11
260.808
 21
201.0
 31
0.0
  0
LINE
 62
1
  8
0
 10
260.808
 20
201.0
 30
0.0
 11
0.0
 21
201.0
 31
0.0
  0
LINE
 62
1
  8
0
 10
0.0
 20
201.0
 30
0.0
 11
0.0
 21
0.0
 31
0.0
  0
LINE
 62
3
  8
0
 10
0.0
 20
0.0
 30
0.0
 11
280.0
 21
0.0
 31
0.0
  0
LINE
 62
3
  8
0
 10
280.0
 20
0.0
 30
0.0
 11
280.0
 21
220.0
 31
0.0
  0
LINE
 62
3
  8
0
 10
280.0
 20
220.0
 30
0.0
 11
0.0
 21
220.0
 31
0.0
  0
LINE
 62
3
  8
0
 10
0.0
 20
220.0
 30
0.0
 11
0.0
 21
0.0
 31
0.0
  0
ENDSEC
  0
EOF
